grf
version=1
nRows=17
nColumns=37
inDegrees=no
endheader
time	ground_force_1_vx	ground_force_1_vy	ground_force_1_vz	ground_force_1_px	ground_force_1_py	ground_force_1_pz	ground_moment_1_mx	ground_moment_1_my	ground_moment_1_mz	ground_force_2_vx	ground_force_2_vy	ground_force_2_vz	ground_force_2_px	ground_force_2_py	ground_force_2_pz	ground_moment_2_mx	ground_moment_2_my	ground_moment_2_mz	ground_force_3_vx	ground_force_3_vy	ground_force_3_vz	ground_force_3_px	ground_force_3_py	ground_force_3_pz	ground_moment_3_mx	ground_moment_3_my	ground_moment_3_mz	ground_force_4_vx	ground_force_4_vy	ground_force_4_vz	ground_force_4_px	ground_force_4_py	ground_force_4_pz	ground_moment_4_mx	ground_moment_4_my	ground_moment_4_mz
      5.68000000	      0.00000000	     -0.00000000	      0.00000000	      0.00000000	      0.00000000	      0.00000000	      0.00000000	      0.00000000	      0.00000000	      6.23377609	      8.08782768	   -178.44715881	   -431.04610263	  -1112.10839967	      0.00000000	      0.00000000	      0.00000000	    608.75680607	     18.57449635	    -97.28831644	   -636.81402588	   -453.30460432	   -709.51465086	      0.00000000	      0.00000000	      0.00000000	  -2798.82149447	      0.00000000	     -0.00000000	      0.00000000	      0.00000000	      0.00000000	      0.00000000	      0.00000000	      0.00000000	      0.00000000
      5.69000000	      0.00000000	     -0.00000000	      0.00000000	      0.00000000	      0.00000000	      0.00000000	      0.00000000	      0.00000000	      0.00000000	      8.12687683	     12.30781460	   -216.80773926	   -433.79379975	  -1113.87561265	      0.00000000	      0.00000000	     -0.00000000	    698.20330136	     17.26916449	    -93.59590300	   -608.89355469	   -453.77588729	   -709.69062034	      0.00000000	      0.00000000	     -0.00000000	  -2649.57857620	      0.00000000	     -0.00000000	      0.00000000	      0.00000000	      0.00000000	      0.00000000	      0.00000000	      0.00000000	      0.00000000
      5.70000000	      0.00000000	     -0.00000000	      0.00000000	      0.00000000	      0.00000000	      0.00000000	      0.00000000	      0.00000000	      0.00000000	      7.08519173	     15.47689247	   -245.04167175	   -435.08630267	  -1114.46720862	      0.00000000	      0.00000000	      0.00000000	    735.44132809	     15.78364366	    -87.99777360	   -577.45611572	   -453.95944938	   -709.79838124	      0.00000000	      0.00000000	     -0.00000000	  -2408.35599035	      0.00000000	     -0.00000000	      0.00000000	      0.00000000	      0.00000000	      0.00000000	      0.00000000	      0.00000000	      0.00000000
      5.71000000	      0.00000000	     -0.00000000	      0.00000000	      0.00000000	      0.00000000	      0.00000000	      0.00000000	      0.00000000	      0.00000000	      5.50376368	     19.91561508	   -265.10052490	   -435.97190224	  -1115.32722423	      0.00000000	      0.00000000	      0.00000000	    905.61456205	     14.47973013	    -81.78583653	   -545.12268066	   -454.55747638	   -710.25324352	      0.00000000	      0.00000000	     -0.00000000	  -2105.01020657	      0.00000000	     -0.00000000	      0.00000000	      0.00000000	      0.00000000	      0.00000000	      0.00000000	      0.00000000	      0.00000000
      5.72000000	      0.00000000	     -0.00000000	      0.00000000	      0.00000000	      0.00000000	      0.00000000	      0.00000000	      0.00000000	      0.00000000	      5.21874952	     24.52111816	   -281.50286865	   -439.06172120	  -1115.11141805	      0.00000000	      0.00000000	      0.00000000	    904.81727336	     13.40493692	    -74.90224574	   -514.18652344	   -454.70772815	   -710.30396329	      0.00000000	      0.00000000	     -0.00000000	  -1949.61916696	      0.00000000	     -0.00000000	      0.00000000	      0.00000000	      0.00000000	      0.00000000	      0.00000000	      0.00000000	      0.00000000
      5.73000000	      0.00000000	     -0.00000000	      0.00000000	      0.00000000	      0.00000000	      0.00000000	      0.00000000	      0.00000000	      0.00000000	      5.94431067	     29.16970634	   -299.26895142	   -441.09466988	  -1116.62947816	      0.00000000	      0.00000000	     -0.00000000	   1007.25776419	     11.79392984	    -67.87889202	   -483.47839355	   -455.50399882	   -711.23540327	      0.00000000	      0.00000000	     -0.00000000	  -1608.57374154	      0.00000000	     -0.00000000	      0.00000000	      0.00000000	      0.00000000	      0.00000000	      0.00000000	      0.00000000	      0.00000000
      5.74000000	      0.00000000	     -0.00000000	      0.00000000	      0.00000000	      0.00000000	      0.00000000	      0.00000000	      0.00000000	      0.00000000	      7.42910194	     33.75041580	   -315.79516602	   -443.50322575	  -1116.58378411	      0.00000000	      0.00000000	      0.00000000	   1247.79599146	     11.19977888	    -61.70671179	   -455.46478271	   -456.08091926	   -711.50372212	      0.00000000	      0.00000000	     -0.00000000	  -1470.04662724	      0.00000000	     -0.00000000	      0.00000000	      0.00000000	      0.00000000	      0.00000000	      0.00000000	      0.00000000	      0.00000000
      5.75000000	      0.00000000	     -0.00000000	      0.00000000	      0.00000000	      0.00000000	      0.00000000	      0.00000000	      0.00000000	      0.00000000	      8.37462807	     37.70320511	   -334.91613770	   -444.14874876	  -1117.81214725	      0.00000000	      0.00000000	      0.00000000	   1367.63127942	     10.06767069	    -56.05776303	   -427.37548828	   -456.11235916	   -711.95727700	      0.00000000	      0.00000000	     -0.00000000	  -1254.27134454	      0.00000000	     -0.00000000	      0.00000000	      0.00000000	      0.00000000	      0.00000000	      0.00000000	      0.00000000	      0.00000000
      5.76000000	      0.00000000	     -0.00000000	      0.00000000	      0.00000000	      0.00000000	      0.00000000	      0.00000000	      0.00000000	      0.00000000	      9.16109562	     40.47961426	   -353.14013672	   -445.02465741	  -1117.69918187	      0.00000000	      0.00000000	      0.00000000	   1344.24540198	      8.34242093	    -50.53139950	   -400.55581665	   -456.23898688	   -712.77769734	      0.00000000	      0.00000000	     -0.00000000	  -1066.64850556	      0.00000000	     -0.00000000	      0.00000000	      0.00000000	      0.00000000	      0.00000000	      0.00000000	      0.00000000	      0.00000000
      5.77000000	      0.00000000	     -0.00000000	      0.00000000	      0.00000000	      0.00000000	      0.00000000	      0.00000000	      0.00000000	      0.00000000	     10.08127880	     42.81180191	   -370.92098999	   -446.07569922	  -1118.20699332	      0.00000000	      0.00000000	      0.00000000	   1407.72008270	      7.15507394	    -45.66783205	   -374.99560547	   -455.25522779	   -712.81902467	      0.00000000	      0.00000000	     -0.00000000	  -1031.97074533	      0.00000000	     -0.00000000	      0.00000000	      0.00000000	      0.00000000	      0.00000000	      0.00000000	      0.00000000	      0.00000000
      5.78000000	      0.00000000	     -0.00000000	      0.00000000	      0.00000000	      0.00000000	      0.00000000	      0.00000000	      0.00000000	      0.00000000	     10.19647408	     44.73974991	   -390.18505859	   -445.86798382	  -1118.56820369	      0.00000000	      0.00000000	     -0.00000000	   1407.48033847	      5.94170498	    -41.01130728	   -348.27844238	   -455.55839910	   -713.79497970	      0.00000000	      0.00000000	     -0.00000000	   -916.13753541	      0.00000000	     -0.00000000	      0.00000000	      0.00000000	      0.00000000	      0.00000000	      0.00000000	      0.00000000	      0.00000000
      5.79000000	      0.00000000	     -0.00000000	      0.00000000	      0.00000000	      0.00000000	      0.00000000	      0.00000000	      0.00000000	      0.00000000	     10.09863853	     46.03378296	   -410.02624512	   -446.22712973	  -1118.00902637	      0.00000000	      0.00000000	      0.00000000	   1443.86942093	      5.22143898	    -37.12692688	   -322.95867920	   -455.29326647	   -713.69175989	      0.00000000	      0.00000000	     -0.00000000	   -973.07722085	      0.00000000	     -0.00000000	      0.00000000	      0.00000000	      0.00000000	      0.00000000	      0.00000000	      0.00000000	      0.00000000
      5.80000000	      0.00000000	     -0.00000000	      0.00000000	      0.00000000	      0.00000000	      0.00000000	      0.00000000	      0.00000000	      0.00000000	     10.37660503	     47.47748184	   -435.45806885	   -445.24516644	  -1119.51886476	      0.00000000	      0.00000000	      0.00000000	   1360.09890530	      3.99578881	    -32.77931248	   -296.10528564	   -454.44008798	   -714.08980325	      0.00000000	     -0.00000000	     -0.00000000	   -667.73825362	      0.00000000	     -0.00000000	      0.00000000	      0.00000000	      0.00000000	      0.00000000	      0.00000000	      0.00000000	      0.00000000
      5.81000000	      0.00000000	     -0.00000000	      0.00000000	      0.00000000	      0.00000000	      0.00000000	      0.00000000	      0.00000000	      0.00000000	     11.96060181	     49.27325439	   -461.80209351	   -445.77835602	  -1119.06513154	      0.00000000	      0.00000000	      0.00000000	   1548.82122992	      2.97737632	    -28.84255626	   -269.50881958	   -453.16774074	   -714.11338645	      0.00000000	      0.00000000	     -0.00000000	   -663.92320507	      0.00000000	     -0.00000000	      0.00000000	      0.00000000	      0.00000000	      0.00000000	      0.00000000	      0.00000000	      0.00000000
      5.82000000	      0.00000000	     -0.00000000	      0.00000000	      0.00000000	      0.00000000	      0.00000000	      0.00000000	      0.00000000	      0.00000000	     14.09156609	     52.91559601	   -492.81011963	   -445.78215628	  -1118.90948454	      0.00000000	      0.00000000	      0.00000000	   1639.14801546	      1.75335812	    -24.60478226	   -242.30429077	   -450.99188718	   -713.08286153	      0.00000000	      0.00000000	     -0.00000000	   -649.17685726	      0.00000000	     -0.00000000	      0.00000000	      0.00000000	      0.00000000	      0.00000000	      0.00000000	      0.00000000	      0.00000000
      5.83000000	      0.00000000	     -0.00000000	      0.00000000	      0.00000000	      0.00000000	      0.00000000	      0.00000000	      0.00000000	      0.00000000	     15.43007183	     57.72576141	   -527.97851562	   -445.59416998	  -1120.16255618	      0.00000000	      0.00000000	      0.00000000	   1733.75644790	      0.55943408	    -20.23406987	   -213.81417847	   -450.37410755	   -714.29809841	      0.00000000	      0.00000000	      0.00000000	   -518.14107724	      0.00000000	     -0.00000000	      0.00000000	      0.00000000	      0.00000000	      0.00000000	      0.00000000	      0.00000000	      0.00000000
      5.84000000	      0.00000000	     -0.00000000	      0.00000000	      0.00000000	      0.00000000	      0.00000000	      0.00000000	      0.00000000	      0.00000000	     16.25352859	     63.11099625	   -560.52325439	   -445.87333852	  -1120.19701995	      0.00000000	      0.00000000	      0.00000000	   1709.65561056	     -0.03244836	    -16.20045280	   -188.43028259	   -446.76155219	   -713.85171825	      0.00000000	      0.00000000	     -0.00000000	   -513.98650194	      0.00000000	     -0.00000000	      0.00000000	      0.00000000	      0.00000000	      0.00000000	      0.00000000	      0.00000000	      0.00000000
